<?xml version="1.0" standalone="no"?>
<!DOCTYPE svg PUBLIC "-//W3C//DTD SVG 20010904//EN"
 "http://www.w3.org/TR/2001/REC-SVG-20010904/DTD/svg10.dtd">
<svg version="1.0" xmlns="http://www.w3.org/2000/svg"
 width="700.000000pt" height="700.000000pt" viewBox="0 0 700.000000 700.000000"
 preserveAspectRatio="xMidYMid meet">
<metadata>
Created by potrace 1.14, written by Peter Selinger 2001-2017
</metadata>
<g transform="translate(0.000000,700.000000) scale(0.100000,-0.100000)"
fill="#000000" stroke="none">
<path d="M3406 6948 c-63 -9 -291 -85 -411 -138 -11 -4 -65 -25 -120 -45 -55
-20 -116 -43 -135 -50 -19 -8 -143 -54 -275 -104 -696 -260 -977 -365 -1045
-391 -41 -16 -120 -45 -175 -66 -55 -20 -127 -47 -160 -59 -33 -13 -176 -66
-317 -119 -360 -134 -402 -152 -465 -192 -147 -94 -250 -243 -289 -419 -11
-49 -13 -366 -13 -1670 1 -1795 -4 -1681 72 -1835 33 -68 58 -102 124 -167
l83 -83 1472 -736 c810 -405 1500 -747 1533 -759 115 -44 258 -49 382 -15 52
14 510 239 1561 764 1365 683 1492 749 1549 801 86 77 156 186 190 293 l28 87
0 1655 0 1655 -28 79 c-16 43 -38 95 -50 115 -34 59 -116 159 -150 183 -18 12
-34 25 -37 28 -15 16 -72 49 -125 72 -33 14 -382 146 -775 293 -393 147 -728
273 -745 280 -16 7 -160 61 -320 119 -159 59 -299 111 -310 116 -36 16 -262
100 -270 100 -4 0 -21 7 -38 15 -55 25 -399 152 -474 175 -76 23 -185 30 -267
18z m612 -1077 c436 -164 762 -286 1762 -661 179 -67 331 -127 338 -133 11 -8
3 -15 -35 -29 -26 -10 -57 -23 -68 -28 -11 -5 -47 -20 -80 -33 -203 -81 -695
-281 -719 -293 -16 -8 -33 -14 -38 -14 -4 0 -27 -9 -51 -19 -23 -11 -89 -38
-147 -61 -58 -22 -114 -45 -125 -50 -20 -9 -293 -121 -650 -265 -99 -40 -298
-121 -442 -179 l-262 -107 -288 116 c-158 64 -301 123 -318 130 -16 7 -158 65
-315 128 -157 64 -422 171 -590 240 -168 68 -447 181 -620 251 -173 71 -328
134 -344 142 -16 8 -32 14 -36 14 -4 0 -34 12 -66 26 l-59 27 35 15 c19 8 62
25 95 37 87 32 298 112 385 145 68 26 581 218 820 307 52 19 118 44 145 55 28
10 293 111 590 223 379 143 549 203 571 200 17 -2 247 -85 512 -184z m2107
-2666 l0 -914 -1090 -545 c-599 -299 -1092 -543 -1094 -540 -2 2 -4 459 -4
1015 l0 1012 59 23 c32 13 68 28 79 33 11 5 283 116 605 246 322 130 594 240
605 245 11 5 99 41 195 80 313 127 474 192 555 226 44 18 82 33 85 34 3 0 5
-412 5 -915z"/>
</g>
</svg>
